<?xml version="1.0" standalone="no"?>
<!DOCTYPE svg PUBLIC "-//W3C//DTD SVG 20010904//EN"
 "http://www.w3.org/TR/2001/REC-SVG-20010904/DTD/svg10.dtd">
<svg version="1.0" xmlns="http://www.w3.org/2000/svg"
     width="1000.03143px" height="256px" viewBox="0 0 300.000000 137.000000"
 preserveAspectRatio="xMidYMid meet">
<metadata>
Created by potrace 1.10, written by Peter Selinger 2001-2011
</metadata>
<g transform="translate(0.000000,137.000000) scale(0.100000,-0.100000)"
fill="#000000" stroke="none">
<path d="M697 893 c-24 -25 -37 -29 -110 -33 -79 -5 -82 -6 -85 -31 l-3 -26
78 1 c43 0 85 -1 93 -4 8 -3 14 0 15 7 0 7 6 18 12 24 17 17 38 19 145 18 16
0 46 -26 47 -41 1 -5 3 -8 6 -8 3 0 16 0 29 0 19 0 22 4 18 25 -3 20 0 25 16
25 24 0 35 -23 19 -39 -8 -8 -4 -11 16 -11 23 0 27 4 27 30 0 25 -4 30 -24 30
-13 0 -27 6 -30 13 -5 10 -7 10 -12 0 -10 -22 -42 -14 -77 17 -30 26 -42 30
-94 30 -50 0 -62 -4 -86 -27z m154 -2 c23 -18 23 -18 -59 -18 -82 1 -98 7 -64
26 29 17 97 13 123 -8z m-211 -61 c11 -7 -2 -10 -43 -10 -36 0 -56 4 -52 10 8
13 75 13 95 0z"/>
<path d="M1360 783 c-1 -125 -2 -136 -16 -118 -37 50 -209 245 -215 245 -3 0
-7 -76 -8 -170 -2 -165 -1 -170 19 -170 19 0 20 6 20 133 1 119 2 130 16 112
33 -44 208 -245 213 -245 3 0 5 78 4 172 -2 146 -5 173 -18 176 -13 3 -15 -16
-15 -135z"/>
<path d="M570 893 c-50 -9 -44 -23 9 -23 47 0 51 2 37 15 -8 8 -16 14 -18 14
-2 -1 -14 -4 -28 -6z"/>
<path d="M1533 821 c-48 -23 -73 -63 -73 -119 0 -45 33 -100 70 -119 55 -28
143 -4 169 46 19 34 -7 35 -45 2 -36 -32 -65 -38 -108 -21 -23 8 -56 55 -56
80 0 6 42 10 116 10 l116 0 -7 28 c-22 89 -102 130 -182 93z m122 -46 c14 -13
25 -29 25 -35 0 -6 -34 -10 -90 -10 -99 0 -113 11 -64 49 38 30 98 28 129 -4z"/>
<path d="M2322 830 c-12 -5 -27 -21 -34 -35 -16 -35 1 -68 51 -99 47 -30 54
-40 46 -66 -9 -28 -42 -35 -72 -15 -19 13 -28 14 -37 5 -8 -9 -5 -16 13 -31
32 -26 77 -24 106 6 44 44 30 88 -40 130 -36 20 -45 32 -43 48 3 25 50 36 73
17 15 -12 35 -6 35 11 0 8 -62 41 -72 38 -2 0 -13 -4 -26 -9z"/>
<path d="M752 818 c-36 -10 -72 -57 -72 -96 0 -31 26 -79 49 -92 11 -5 38 -10
61 -10 92 0 133 111 64 175 -30 28 -58 34 -102 23z m96 -44 c12 -14 22 -35 22
-47 0 -33 -24 -72 -43 -71 -9 1 -15 -2 -12 -6 8 -12 -35 -19 -60 -10 -50 19
-70 84 -39 128 33 48 92 50 132 6z"/>
<path d="M747 762 c-32 -22 -37 -30 -32 -52 8 -32 45 -70 52 -52 3 6 11 12 18
12 8 0 27 13 43 28 32 31 30 62 -7 81 -26 14 -29 14 -74 -17z m83 -23 c0 -11
-8 -23 -17 -26 -10 -4 -24 -13 -32 -20 -7 -8 -21 -13 -30 -11 -18 4 -29 48
-12 48 6 0 20 9 30 19 24 24 61 17 61 -10z"/>
<path d="M1750 823 c0 -3 20 -30 44 -62 l44 -57 -30 -39 c-74 -98 -72 -95 -49
-95 18 0 33 17 87 96 8 13 16 6 47 -40 25 -37 44 -56 57 -56 25 0 20 10 -38
85 l-39 50 43 57 c24 31 44 58 44 61 0 2 -10 2 -23 0 -13 -3 -34 -23 -51 -49
-15 -24 -29 -44 -31 -44 -2 0 -16 20 -31 44 -17 26 -38 46 -51 49 -13 2 -23 2
-23 0z"/>
<path d="M2000 745 c0 -92 13 -132 52 -159 47 -33 133 -11 156 39 18 39 16
205 -2 205 -11 0 -15 -22 -18 -96 -3 -86 -5 -98 -27 -115 -31 -26 -64 -24 -97
5 -27 22 -28 28 -29 115 0 80 -2 91 -17 91 -16 0 -18 -11 -18 -85z"/>
<path d="M510 785 c-1 0 -2 -37 -3 -83 l-2 -82 93 0 c50 0 92 3 92 8 0 4 -19
7 -42 7 -40 0 -42 1 -46 35 -5 48 -12 51 -12 7 0 -33 -3 -37 -25 -37 -19 0
-25 6 -26 23 -6 94 -1 107 48 107 30 0 35 -3 30 -20 -6 -22 18 -29 26 -7 3 6
5 -1 5 -18 0 -16 -2 -24 -5 -17 -8 20 -18 14 -18 -13 0 -14 5 -27 12 -29 15
-6 28 53 18 83 -4 14 -2 21 6 21 7 0 10 3 6 6 -4 4 -85 9 -157 9z"/>
<path d="M960 781 c-42 -6 -45 -8 -46 -38 -1 -18 2 -30 7 -27 12 7 5 -46 -10
-74 -12 -22 -11 -22 49 -22 l60 0 0 85 c0 47 -3 84 -7 83 -5 0 -28 -4 -53 -7z
m17 -19 c8 -5 11 -28 10 -62 -2 -47 -5 -55 -22 -58 -18 -2 -20 3 -19 50 2 86
3 88 31 70z"/>
<path d="M500 597 c0 -9 5 -19 11 -23 8 -5 433 -9 497 -5 6 1 12 10 12 21 0
18 -7 20 -67 20 -40 -1 -78 -7 -93 -15 -28 -16 -44 -19 -36 -7 2 4 -12 9 -32
10 -20 0 -94 4 -164 8 -112 5 -128 4 -128 -9z"/>
</g>
</svg>
